<svg viewBox="0 0 1298 194" fill="none" xmlns="http://www.w3.org/2000/svg">
<path d="M587.685 139.975C582.342 137.775 578.064 134.522 574.867 130.213C571.67 125.905 569.974 120.708 569.809 114.637H593.749C594.095 118.072 595.28 120.693 597.307 122.486C599.318 124.293 601.96 125.197 605.202 125.197C608.444 125.197 611.161 124.429 613.097 122.892C615.019 121.356 615.994 119.217 615.994 116.49C615.994 114.201 615.229 112.318 613.698 110.811C612.167 109.32 610.275 108.085 608.039 107.121C605.802 106.156 602.62 105.057 598.508 103.822C592.549 101.969 587.685 100.131 583.903 98.2781C580.135 96.4252 576.893 93.6987 574.176 90.0984C571.46 86.4982 570.094 81.7832 570.094 75.9686C570.094 67.3521 573.201 60.5884 579.43 55.7077C585.659 50.8271 593.764 48.3867 603.761 48.3867C613.758 48.3867 622.133 50.8271 628.347 55.7077C634.576 60.5884 637.909 67.3822 638.344 76.1041H614.013C613.833 73.1064 612.737 70.7565 610.726 69.0392C608.714 67.3219 606.118 66.4633 602.966 66.4633C600.249 66.4633 598.057 67.1864 596.391 68.6476C594.725 70.1087 593.9 72.1876 593.9 74.9141C593.9 77.9118 595.295 80.2316 598.102 81.9037C600.909 83.5758 605.292 85.3835 611.251 87.3116C617.21 89.3302 622.058 91.2734 625.781 93.1263C629.503 94.9791 632.73 97.6605 635.447 101.17C638.164 104.695 639.53 109.214 639.53 114.758C639.53 120.301 638.194 124.836 635.522 129.144C632.85 133.452 628.963 136.887 623.889 139.432C618.801 141.993 612.797 143.259 605.877 143.259C598.958 143.259 593.074 142.159 587.73 139.96L587.685 139.975Z" fill="white"/>
<path d="M673.106 137.203C665.871 133.151 660.138 127.502 655.875 120.241C651.627 112.98 649.496 104.816 649.496 95.7624C649.496 86.7091 651.627 78.5595 655.875 71.344C660.123 64.1284 665.871 58.4945 673.106 54.4574C680.341 50.4053 688.296 48.3867 696.972 48.3867C705.648 48.3867 713.603 50.4053 720.838 54.4574C728.073 58.5096 733.776 64.1435 737.934 71.344C742.092 78.5595 744.178 86.694 744.178 95.7624C744.178 104.831 742.077 112.98 737.859 120.241C733.641 127.502 727.953 133.151 720.763 137.203C713.573 141.255 705.633 143.274 696.957 143.274C688.281 143.274 680.326 141.255 673.091 137.203H673.106ZM714.669 115.285C719.097 110.359 721.303 103.852 721.303 95.7474C721.303 87.643 719.082 81.03 714.669 76.1493C710.241 71.2687 704.342 68.8283 696.972 68.8283C689.602 68.8283 683.583 71.2536 679.155 76.0891C674.727 80.9246 672.521 87.4924 672.521 95.7474C672.521 104.002 674.727 110.465 679.155 115.345C683.583 120.226 689.527 122.666 696.972 122.666C704.417 122.666 710.226 120.211 714.669 115.27V115.285Z" fill="white"/>
<path d="M779.167 125.549H808.631V142.978H756.682V50.3203H779.167V125.549Z" fill="white"/>
<path d="M841.503 50.3203V105.755C841.503 111.299 842.869 115.562 845.586 118.559C848.303 121.557 852.295 123.048 857.549 123.048C862.802 123.048 866.84 121.557 869.647 118.559C872.454 115.562 873.85 111.299 873.85 105.755V50.3203H896.335V105.62C896.335 113.89 894.578 120.879 891.081 126.603C887.569 132.328 882.856 136.636 876.942 139.543C871.028 142.451 864.423 143.897 857.144 143.897C849.864 143.897 843.35 142.466 837.616 139.604C831.867 136.741 827.334 132.433 824.002 126.664C820.67 120.894 819.003 113.89 819.003 105.605V50.3203H841.488H841.503Z" fill="white"/>
<path d="M978.544 50.3203V68.3969H954.077V142.963H931.592V68.3969H907.126V50.3203H978.544Z" fill="white"/>
<path d="M1012.33 50.3203V142.978H989.847V50.3203H1012.33Z" fill="white"/>
<path d="M1048.43 137.203C1041.2 133.151 1035.46 127.502 1031.2 120.241C1026.95 112.98 1024.82 104.816 1024.82 95.7624C1024.82 86.7091 1026.95 78.5595 1031.2 71.344C1035.45 64.1284 1041.2 58.4945 1048.43 54.4574C1055.66 50.4053 1063.62 48.3867 1072.3 48.3867C1080.97 48.3867 1088.93 50.4053 1096.16 54.4574C1103.4 58.5096 1109.1 64.1435 1113.26 71.344C1117.42 78.5595 1119.5 86.694 1119.5 95.7624C1119.5 104.831 1117.4 112.98 1113.18 120.241C1108.97 127.502 1103.28 133.151 1096.09 137.203C1088.9 141.255 1080.96 143.274 1072.28 143.274C1063.61 143.274 1055.65 141.255 1048.41 137.203H1048.43ZM1089.99 115.285C1094.42 110.359 1096.63 103.852 1096.63 95.7474C1096.63 87.643 1094.41 81.03 1089.99 76.1493C1085.56 71.2687 1079.67 68.8283 1072.3 68.8283C1064.93 68.8283 1058.91 71.2536 1054.48 76.0891C1050.05 80.9246 1047.84 87.4924 1047.84 95.7474C1047.84 104.002 1050.05 110.465 1054.48 115.345C1058.91 120.226 1064.85 122.666 1072.3 122.666C1079.74 122.666 1085.55 120.211 1089.99 115.27V115.285Z" fill="white"/>
<path d="M1214.61 142.963H1192.12L1154.51 85.8107V142.963H1132.02V50.3203H1154.51L1192.12 107.729V50.3203H1214.61V142.978V142.963Z" fill="white"/>
<path d="M1246.16 139.975C1240.81 137.775 1236.53 134.522 1233.34 130.213C1230.14 125.905 1228.44 120.708 1228.28 114.637H1252.22C1252.57 118.072 1253.75 120.693 1255.78 122.486C1257.79 124.293 1260.43 125.197 1263.67 125.197C1266.91 125.197 1269.63 124.429 1271.57 122.892C1273.49 121.356 1274.46 119.217 1274.46 116.49C1274.46 114.201 1273.7 112.318 1272.17 110.811C1270.64 109.32 1268.75 108.085 1266.51 107.121C1264.27 106.156 1261.09 105.057 1256.98 103.822C1251.02 101.969 1246.16 100.131 1242.37 98.2781C1238.61 96.4252 1235.36 93.6987 1232.65 90.0984C1229.93 86.4982 1228.56 81.7832 1228.56 75.9686C1228.56 67.3521 1231.67 60.5884 1237.9 55.7077C1244.13 50.8271 1252.23 48.3867 1262.23 48.3867C1272.23 48.3867 1280.6 50.8271 1286.82 55.7077C1293.05 60.5884 1296.38 67.3822 1296.81 76.1041H1272.48C1272.3 73.1064 1271.21 70.7565 1269.2 69.0392C1267.18 67.3219 1264.59 66.4633 1261.44 66.4633C1258.72 66.4633 1256.53 67.1864 1254.86 68.6476C1253.2 70.1087 1252.37 72.1876 1252.37 74.9141C1252.37 77.9118 1253.77 80.2316 1256.57 81.9037C1259.38 83.5758 1263.76 85.3835 1269.72 87.3116C1275.68 89.3302 1280.53 91.2734 1284.25 93.1263C1287.97 94.9791 1291.2 97.6605 1293.92 101.17C1296.63 104.695 1298 109.214 1298 114.758C1298 120.301 1296.66 124.836 1293.99 129.144C1291.32 133.452 1287.43 136.887 1282.36 139.432C1277.27 141.993 1271.27 143.259 1264.35 143.259C1257.43 143.259 1251.54 142.159 1246.2 139.96L1246.16 139.975Z" fill="white"/>
<path d="M254.585 142.967L235.387 107.989H229.998V142.967H207.498V50.3245H245.248C252.528 50.3245 258.727 51.6049 263.861 54.1507C268.994 56.7115 272.822 60.2064 275.373 64.6502C277.91 69.094 279.186 74.05 279.186 79.5031C279.186 85.6642 277.46 91.1625 273.993 95.998C270.525 100.833 265.422 104.268 258.667 106.287L279.966 142.982H254.585V142.967ZM229.983 92.0211H243.928C248.055 92.0211 251.132 91.0119 253.204 88.9933C255.26 86.9748 256.296 84.1126 256.296 80.4069C256.296 76.7012 255.26 74.1103 253.204 72.0917C251.147 70.0732 248.055 69.0488 243.928 69.0488H229.983V92.0211Z" fill="url(#paint0_linear_835_762)"/>
<path d="M359.654 50.3245V68.4011H335.188V142.967H312.703V68.4011H288.237V50.3245H359.654Z" fill="url(#paint1_linear_835_762)"/>
<path d="M393.051 50.3245V105.759C393.051 111.303 394.417 115.566 397.134 118.564C399.851 121.561 403.844 123.053 409.097 123.053C414.35 123.053 418.388 121.561 421.195 118.564C424.002 115.566 425.398 111.303 425.398 105.759V50.3245H447.883V105.624C447.883 113.894 446.127 120.883 442.629 126.608C439.117 132.332 434.404 136.64 428.49 139.548C422.576 142.455 415.972 143.901 408.692 143.901C401.412 143.901 394.898 142.47 389.164 139.608C383.415 136.746 378.882 132.437 375.55 126.668C372.218 120.898 370.551 113.894 370.551 105.609V50.3245H393.051Z" fill="url(#paint2_linear_835_762)"/>
<path d="M478.938 139.977C473.595 137.778 469.317 134.524 466.12 130.216C462.923 125.907 461.226 120.71 461.061 114.64H485.002C485.347 118.074 486.533 120.695 488.56 122.488C490.571 124.296 493.213 125.199 496.455 125.199C499.697 125.199 502.414 124.431 504.35 122.895C506.271 121.358 507.247 119.219 507.247 116.492C507.247 114.203 506.481 112.32 504.95 110.813C503.419 109.322 501.528 108.087 499.292 107.123C497.055 106.159 493.873 105.059 489.76 103.824C483.801 101.971 478.938 100.133 475.156 98.2803C471.388 96.4275 468.146 93.7009 465.429 90.1006C462.712 86.5004 461.347 81.7854 461.347 75.9708C461.347 67.3543 464.454 60.5906 470.683 55.7099C476.912 50.8293 485.017 48.3889 495.014 48.3889C505.01 48.3889 513.386 50.8293 519.6 55.7099C525.829 60.5906 529.161 67.3844 529.597 76.1064H505.266C505.086 73.1087 503.99 70.7587 501.979 69.0414C499.967 67.3242 497.37 66.4655 494.218 66.4655C491.502 66.4655 489.31 67.1886 487.644 68.6498C485.978 70.111 485.152 72.1898 485.152 74.9163C485.152 77.914 486.548 80.2338 489.355 81.9059C492.162 83.578 496.545 85.3857 502.504 87.3138C508.463 89.3324 513.311 91.2756 517.033 93.1285C520.756 94.9813 523.983 97.6627 526.7 101.173C529.417 104.697 530.783 109.217 530.783 114.76C530.783 120.304 529.447 124.838 526.775 129.146C524.103 133.454 520.216 136.889 515.142 139.435C510.054 141.996 504.05 143.261 497.13 143.261C490.211 143.261 484.327 142.161 478.983 139.962L478.938 139.977Z" fill="url(#paint3_linear_835_762)"/>
<path d="M114.978 183.199C68.6113 183.286 30.8573 145.701 30.7701 99.204C30.6829 52.7067 68.1535 14.8375 114.52 14.75C137.066 14.6625 158.685 23.7607 174.536 39.8357C143.204 -3.35903 82.904 -12.9166 39.7426 18.5117C-3.41888 49.94 -12.8492 110.413 18.4835 153.695C49.827 196.977 110.116 206.447 153.277 175.019C155.381 173.455 157.496 171.804 159.415 170.153C146.223 178.792 130.732 183.297 114.978 183.199Z" fill="url(#paint4_linear_835_762)"/>
<path d="M143.564 28.2552C176.096 47.2828 186.998 89.0887 168.116 121.622C149.146 154.242 107.456 165.177 75.0225 146.248C56.4235 135.4 44.0496 116.285 41.673 94.8736V98.8212C41.673 140.726 75.4804 174.636 117.268 174.636C159.056 174.636 192.863 140.726 192.863 98.8212C192.405 67.3929 172.891 39.3655 143.564 28.2443V28.2552Z" fill="url(#paint5_linear_835_762)"/>
<path d="M107.369 33.4933C82.5341 33.4058 60.7298 49.8526 53.7634 73.7464C65.0362 48.934 94.2647 37.9986 119.002 49.3058C143.738 60.613 154.641 89.9308 143.379 114.743C135.409 132.393 117.813 143.602 98.5711 143.602C94.2647 143.514 89.9584 142.956 85.7393 141.95C92.6076 144.892 99.9447 146.357 107.456 146.27C138.516 146.084 163.439 120.626 163.264 89.4715C162.893 58.6884 138.069 33.7776 107.369 33.5042V33.4933Z" fill="url(#paint6_linear_835_762)"/>
<defs>
<linearGradient id="paint0_linear_835_762" x1="123.499" y1="158.961" x2="240.57" y2="-100.368" gradientUnits="userSpaceOnUse">
<stop stop-color="#A9DD2F"/>
<stop offset="0.72" stop-color="#2DBA95"/>
</linearGradient>
<linearGradient id="paint1_linear_835_762" x1="123.499" y1="158.961" x2="240.57" y2="-100.368" gradientUnits="userSpaceOnUse">
<stop stop-color="#A9DD2F"/>
<stop offset="0.72" stop-color="#2DBA95"/>
</linearGradient>
<linearGradient id="paint2_linear_835_762" x1="123.499" y1="158.961" x2="240.57" y2="-100.368" gradientUnits="userSpaceOnUse">
<stop stop-color="#A9DD2F"/>
<stop offset="0.72" stop-color="#2DBA95"/>
</linearGradient>
<linearGradient id="paint3_linear_835_762" x1="123.499" y1="158.961" x2="240.57" y2="-100.368" gradientUnits="userSpaceOnUse">
<stop stop-color="#A9DD2F"/>
<stop offset="0.72" stop-color="#2DBA95"/>
</linearGradient>
<linearGradient id="paint4_linear_835_762" x1="123.499" y1="158.961" x2="240.57" y2="-100.368" gradientUnits="userSpaceOnUse">
<stop stop-color="#A9DD2F"/>
<stop offset="0.72" stop-color="#2DBA95"/>
</linearGradient>
<linearGradient id="paint5_linear_835_762" x1="123.499" y1="158.961" x2="240.57" y2="-100.368" gradientUnits="userSpaceOnUse">
<stop stop-color="#A9DD2F"/>
<stop offset="0.72" stop-color="#2DBA95"/>
</linearGradient>
<linearGradient id="paint6_linear_835_762" x1="123.499" y1="158.961" x2="240.57" y2="-100.368" gradientUnits="userSpaceOnUse">
<stop stop-color="#A9DD2F"/>
<stop offset="0.72" stop-color="#2DBA95"/>
</linearGradient>
</defs>
</svg>
